<svg width="182" height="182" viewBox="0 0 182 182" fill="none" xmlns="http://www.w3.org/2000/svg">
<rect opacity="0.7" x="90.6667" width="128" height="128" rx="40" transform="rotate(45 90.6667 0)" fill="#F0FBFE"/>
<path d="M108.272 102.455H75.5441C74.6764 102.454 73.8445 102.109 73.2309 101.496C72.6174 100.882 72.2722 100.05 72.2712 99.1825V76.2728C72.2721 75.4051 72.6172 74.5731 73.2308 73.9595C73.8444 73.346 74.6763 73.0009 75.5441 73H108.272C109.14 73.001 109.972 73.3461 110.585 73.9597C111.199 74.5732 111.544 75.4051 111.545 76.2728V99.1825C111.544 100.05 111.199 100.882 110.585 101.495C109.972 102.109 109.14 102.454 108.272 102.455ZM75.5441 76.2728V99.1825H108.272V76.2728H75.5441Z" fill="#7CC3DF"/>
<path d="M114.82 105.726H69.0007V108.999H114.82V105.726Z" fill="#7CC3DF"/>
</svg>
