<svg width="86" height="40" viewBox="0 0 86 40" fill="none" xmlns="http://www.w3.org/2000/svg">
<path d="M49.4485 31.9775C50.8977 31.9775 51.619 31.5878 51.619 30.6672C51.619 29.6324 50.831 29.2562 49.2548 29.2562L48.066 29.2562L48.066 31.9775L49.4485 31.9775ZM49.0478 27.3882C50.2366 27.3882 50.831 27.1732 50.831 26.1586C50.831 25.1843 50.1898 24.8013 48.9008 24.8013L48.0593 24.8013L48.0593 27.3882L49.0478 27.3882ZM45.3145 22.6914L49.3016 22.6914C52.0865 22.6914 53.5358 23.6993 53.5358 25.8495C53.5358 26.8036 52.9681 27.5159 52.3937 27.8921V27.9257C53.1685 28.2012 54.3572 29.0411 54.3572 30.6067C54.3572 32.6964 53.1351 34.1344 49.7891 34.1344L45.3211 34.1344L45.3211 22.6914H45.3145Z" fill="#E24353"/>
<path d="M60.5004 31.8831V30.4922L59.178 30.5258C58.3899 30.5392 57.8156 30.8012 57.8156 31.4463C57.8156 31.9637 58.3098 32.1921 58.7973 32.1921C59.3116 32.1921 59.926 32.0443 60.5004 31.8831ZM55.2109 31.6076C55.2109 29.3768 57.2345 28.9198 58.971 28.9198L60.5004 28.9198V28.3689C60.5004 27.5961 60.0062 27.3677 58.9042 27.3677C58.036 27.3677 57.101 27.5625 56.2862 27.7574L55.7519 25.8021C56.747 25.4124 57.9091 25.0898 59.3116 25.0898C62.0298 25.0898 63.125 25.8626 63.125 27.8582L63.125 31.789C63.125 32.0846 63.4122 32.1451 63.9131 32.1585L63.8196 34.1945C63.6059 34.2147 63.3989 34.2147 63.1918 34.2147C62.1299 34.2147 61.0013 34.0332 60.7608 33.274C60.1197 33.7712 59.198 34.2751 58.2363 34.2751C56.3062 34.2751 55.2109 33.3747 55.2109 31.6076Z" fill="#E24353"/>
<path d="M65.2305 25.2999L67.9153 25.2999V26.1935C68.4429 25.7904 69.6049 25.0781 70.7804 25.0781C73.5319 25.0781 73.7256 26.5967 73.7256 28.6058L73.7256 34.1425L71.0542 34.1425L71.0542 28.8342C71.0542 27.6247 70.7804 27.4097 69.8788 27.4097C69.0773 27.4097 68.3494 27.6718 67.9153 27.8801L67.9153 34.1425L65.2305 34.1425L65.2305 25.2999Z" fill="#E24353"/>
<path d="M75.4551 21.9336L78.1399 21.9336L78.1399 28.5723L80.5709 25.3L83.4493 25.3L80.2503 29.3786L83.9769 34.1358L80.6644 34.1358L78.1399 30.494L78.1399 34.1358L75.4551 34.1358L75.4551 21.9336Z" fill="#E24353"/>
<path d="M49.7357 5.85158L45.3145 5.85158L45.3145 17.3013L48.066 17.3013L48.066 14.0626L48.9008 14.0626C52.2936 14.0626 54.1302 12.1677 54.1302 9.91675C54.1302 7.3567 52.3002 5.85158 49.7357 5.85158ZM48.9943 11.9393L48.0593 11.9393L48.0593 8.00175L49.3817 8.00175C50.8443 8.00175 51.3118 8.82823 51.3118 9.97723C51.3185 11.0456 50.7041 11.9393 48.9943 11.9393ZM82.1735 5.85158L78.4402 5.85158L74.6134 17.3013L77.4451 17.3013L78.5203 13.9483L82.0933 13.9483L83.1686 17.3013L86.0003 17.3013L82.1735 5.85158ZM79.1615 11.9527L80.3035 7.55156L81.4455 11.9527L79.1615 11.9527ZM57.583 5.85158L53.7562 17.3013L56.5879 17.3013L57.6631 13.9483L61.2362 13.9483L62.3114 17.3013L65.1431 17.3013L61.323 5.85158L57.583 5.85158ZM58.311 11.9527L59.453 7.55156L60.595 11.9527L58.311 11.9527ZM68.7362 8.84166C68.7362 8.35116 69.0902 7.9144 70.2389 7.9144C71.401 7.9144 72.0955 8.14286 72.937 8.38475L73.7318 6.46303C72.8435 6.07331 71.9686 5.68359 70.1587 5.68359C68.1351 5.68359 66.0514 6.64445 66.0514 8.8551C66.0514 12.759 71.4878 12.2551 71.4878 14.1298C71.4878 14.8286 70.86 15.2519 69.4842 15.2519C68.222 15.2519 67.4806 15.0906 66.4588 14.7278L65.6841 16.7167C66.4588 17.14 67.4272 17.4558 68.99 17.5163C69.0635 17.8052 69.1503 18.1076 69.1503 18.3898C69.1503 18.9609 68.3288 19.2835 67.9214 19.5321L68.8431 21.1581C69.8649 20.7348 71.401 20.0159 71.401 18.6989C71.401 18.242 71.2206 17.7851 71.0403 17.3819H71.027C72.8035 17.0325 74.2794 16.0112 74.2794 14.029C74.2661 10.3737 68.7362 10.3737 68.7362 8.84166Z" fill="#099A71"/>
<path d="M26.9283 5.85938L33.9342 5.85938L33.9342 17.3023L22.5605 17.3023L22.5605 14.7221L28.8451 8.39927L29.1523 8.09018L26.9283 5.85938Z" fill="#099A71"/>
<path d="M19.8813 0L27.9223 8.09004L19.8813 16.1801L18.0647 14.3591L18.0647 4.98572L14.9258 4.98572L19.8813 0Z" fill="#E24353"/>
<path d="M5.82422 5.85938L5.82422 12.9079L7.73429 10.9795L8.04151 10.6704L14.6333 17.3023L17.1978 17.3023L17.1978 5.85938L5.82422 5.85938Z" fill="#099A71"/>
<path d="M0 19.9963L8.041 11.9063L16.0887 19.9963L14.2721 21.8239L4.94882 21.8239L4.94882 24.982L0 19.9963Z" fill="#E24353"/>
<path d="M5.82422 34.1422L5.82422 22.6992L17.1978 22.6992L17.1978 25.2794L10.9133 31.6023L10.6061 31.9114L10.9133 32.2205L12.83 34.1422L5.82422 34.1422Z" fill="#099A71"/>
<path d="M19.8817 39.9993L11.834 31.9093L19.8817 23.8125L21.6916 25.6401L21.6916 35.0136L24.8305 35.0136L19.8817 39.9993Z" fill="#E24353"/>
<path d="M33.9342 34.1422L22.5605 34.1422L22.5605 22.6992L25.1251 22.6992L31.4097 29.0221L31.7169 29.3312L32.0241 29.0221L33.9342 27.0936L33.9342 34.1422Z" fill="#099A71"/>
<path d="M31.7168 28.0953L23.6758 19.9985L25.4857 18.1776L34.8023 18.1776L34.8023 15.0195L39.7578 19.9985L31.7168 28.0953Z" fill="#E24353"/>
</svg>
