<svg width="182" height="182" viewBox="0 0 182 182" fill="none" xmlns="http://www.w3.org/2000/svg">
<rect x="91.0039" width="128" height="128" rx="40" transform="rotate(45 91.0039 0)" fill="#FEF8F5"/>
<path d="M77.5 84.9807H73C72.2046 84.9798 71.4421 84.6634 70.8797 84.101C70.3173 83.5386 70.0009 82.7761 70 81.9807V75.9807C70.0009 75.1853 70.3173 74.4228 70.8797 73.8604C71.4421 73.298 72.2046 72.9816 73 72.9807H77.5V75.9807H73V81.9807H77.5V84.9807Z" fill="#FF8041"/>
<path d="M89.5 81.9807H80.5V84.9807H89.5V81.9807Z" fill="#FF8041"/>
<path d="M101.5 81.9807H92.5V84.9807H101.5V81.9807Z" fill="#FF8041"/>
<path d="M109 84.9807H104.5V81.9807H109V75.9807H104.5V72.9807H109C109.795 72.9816 110.558 73.298 111.12 73.8604C111.683 74.4228 111.999 75.1853 112 75.9807V81.9807C111.999 82.7761 111.683 83.5386 111.12 84.101C110.558 84.6634 109.795 84.9798 109 84.9807Z" fill="#FF8041"/>
<path d="M101.5 72.9807H92.5V75.9807H101.5V72.9807Z" fill="#FF8041"/>
<path d="M89.5 72.9807H80.5V75.9807H89.5V72.9807Z" fill="#FF8041"/>
<path d="M109 108.981H73C72.2046 108.98 71.4421 108.663 70.8797 108.101C70.3173 107.539 70.0009 106.776 70 105.981V99.9807C70.0009 99.1853 70.3173 98.4228 70.8797 97.8604C71.4421 97.298 72.2046 96.9816 73 96.9807H109C109.795 96.9816 110.558 97.298 111.12 97.8604C111.683 98.4228 111.999 99.1853 112 99.9807V105.981C111.999 106.776 111.683 107.539 111.12 108.101C110.558 108.663 109.795 108.98 109 108.981ZM73 99.9807V105.981H109V99.9807H73Z" fill="#FF8041"/>
<path d="M112 89.4807H70V92.4807H112V89.4807Z" fill="#FF8041"/>
</svg>
