<svg width="182" height="182" viewBox="0 0 182 182" fill="none" xmlns="http://www.w3.org/2000/svg">
<rect x="91.3334" width="128" height="128" rx="40" transform="rotate(45 91.3334 0)" fill="#F4F3FA"/>
<path d="M97.0015 88H109.001C109.797 87.9991 110.559 87.6827 111.122 87.1203C111.684 86.5579 112.001 85.7954 112.001 85V73C112.001 72.2046 111.684 71.4421 111.122 70.8797C110.559 70.3173 109.797 70.0009 109.001 70H97.0015C96.2061 70.0009 95.4436 70.3173 94.8812 70.8797C94.3187 71.4421 94.0024 72.2046 94.0015 73H80.5015C79.7061 73.0009 78.9436 73.3173 78.3812 73.8797C77.8187 74.4421 77.5024 75.2046 77.5015 76V82H73.0015C72.2061 82.0009 71.4436 82.3173 70.8812 82.8797C70.3187 83.4421 70.0024 84.2046 70.0015 85V97C70.0024 97.7954 70.3187 98.5579 70.8812 99.1203C71.4436 99.6827 72.2061 99.9991 73.0015 100H76.0015V106C76.0024 106.795 76.3187 107.558 76.8812 108.12C77.4436 108.683 78.2061 108.999 79.0015 109H94.0015C94.0024 109.795 94.3187 110.558 94.8812 111.12C95.4436 111.683 96.2061 111.999 97.0015 112H109.001C109.797 111.999 110.559 111.683 111.122 111.12C111.684 110.558 112.001 109.795 112.001 109V97C112.001 96.2046 111.684 95.4421 111.122 94.8797C110.559 94.3173 109.797 94.0009 109.001 94H97.0015C96.2061 94.0009 95.4436 94.3173 94.8812 94.8797C94.3187 95.4421 94.0024 96.2046 94.0015 97V106H79.0015V100H85.0015C85.7968 99.9991 86.5594 99.6827 87.1218 99.1203C87.6842 98.5579 88.0006 97.7954 88.0015 97V85C88.0006 84.2046 87.6842 83.4421 87.1218 82.8797C86.5594 82.3173 85.7968 82.0009 85.0015 82H80.5015V76H94.0015V85C94.0024 85.7954 94.3187 86.5579 94.8812 87.1203C95.4436 87.6827 96.2061 87.9991 97.0015 88ZM97.0015 109V103H109.001V109H97.0015ZM109.001 97V100H97.0015V97H109.001ZM73.0015 97V91H85.0015V97H73.0015ZM85.0022 88H73.0015V85H85.0015L85.0022 88ZM97.0015 85V79H109.001V85H97.0015ZM109.001 73V76H97.0015V73H109.001Z" fill="#6A5DC8"/>
</svg>
