<svg width="297" height="60" viewBox="0 0 297 60" fill="none" xmlns="http://www.w3.org/2000/svg">
<g clip-path="url(#clip0)">
<path fill-rule="evenodd" clip-rule="evenodd" d="M0.757862 5.71538C2.11101 2.37838 5.5764 -0.000478813 9.2068 -0.000478813C36.5008 -0.000478813 63.7619 -0.000478813 91.0559 -0.000478813C93.4321 -0.0665581 95.8084 0.825512 97.5246 2.44446C99.5378 4.2286 100.66 6.90481 100.594 9.58102C100.594 20.0546 100.627 30.5282 100.594 41.0017C100.561 45.7264 96.4355 49.9555 91.716 50.0876C81.7819 50.1207 71.8148 50.0876 61.8476 50.1207C63.1678 53.4246 64.5209 56.6956 65.8741 59.9995C59.9334 56.7286 54.0918 53.3586 48.1181 50.1537C35.0157 50.0546 21.9462 50.1537 8.84376 50.0876C4.12424 49.9555 -0.0012225 45.7264 -0.0012225 41.0017C-0.0012225 30.7594 0.0317812 20.4841 -0.0012225 10.2418C-0.0342262 8.68895 0.0977885 7.13609 0.757862 5.71538Z" fill="#9C5C8F"/>
<path fill-rule="evenodd" clip-rule="evenodd" d="M40.7586 6.4753C42.2768 4.85635 45.1481 5.38499 46.2372 7.20217C46.8313 8.16032 46.8973 9.44886 46.4022 10.4401C44.29 14.57 43.4319 19.1956 42.6068 23.722C41.6497 29.6361 40.8576 35.6163 41.1547 41.6295C41.2537 43.1493 40.4946 45.0326 38.8444 45.363C37.2932 45.6934 35.8741 44.7022 34.917 43.5788C30.4615 38.7881 27.9532 32.5766 26.138 26.3652C24.2898 29.9995 22.4416 33.6339 20.6594 37.3013C19.4713 39.7793 18.1511 42.3233 16.1379 44.2727C15.2798 45.0986 13.8606 45.8586 12.8045 44.9995C11.1873 43.5788 10.7583 41.2991 10.0652 39.3167C7.42492 30.2308 5.93975 20.8806 4.42158 11.5634C4.05854 10.0105 4.71862 8.16032 6.26979 7.53256C7.52393 7.07001 9.10811 7.00393 10.1972 7.92904C10.9563 8.58983 11.1543 9.61406 11.2863 10.5722C12.3755 17.7749 13.6296 24.9775 15.3788 32.048C18.3491 26.3982 21.3195 20.7154 24.2898 15.0656C24.7188 14.2396 25.2469 13.4136 26.072 12.885C27.1611 12.1912 28.7783 12.2242 29.6694 13.2154C30.4285 14.0083 30.6925 15.1317 30.8905 16.189C31.7816 20.8806 32.9698 25.5061 34.7189 29.9334C35.478 23.2594 36.4021 16.4863 38.8444 10.1757C39.3725 8.88719 39.8675 7.5656 40.7586 6.4753ZM57.5245 10.0436C60.7258 9.6471 64.1912 10.7044 66.3695 13.1493C68.1517 15.1647 69.1418 17.7749 69.4718 20.4511C70.0329 24.9775 69.2078 29.7022 67.0295 33.7C65.8084 35.9797 64.1912 38.1934 61.914 39.548C58.5806 41.5634 54.1251 41.3321 50.9238 39.1845C48.3495 37.4334 46.8973 34.4268 46.3362 31.4202C45.1481 24.6471 47.1613 17.1141 52.2769 12.3894C53.7621 11.1339 55.5773 10.2749 57.5245 10.0436ZM58.1846 17.0149C56.6334 17.5105 55.6763 18.9312 54.8512 20.2528C52.772 23.5898 52.1779 28.0171 53.8281 31.6515C54.2571 32.6097 54.9832 33.6008 56.0723 33.8321C57.2605 34.0304 58.3496 33.3365 59.2077 32.6097C61.1219 30.9907 62.046 28.5458 62.508 26.1339C63.0361 23.3916 62.7721 20.3519 61.1549 18.0392C60.5278 17.048 59.2737 16.6185 58.1846 17.0149ZM83.2673 10.0436C86.4027 9.6471 89.8021 10.6383 92.0133 12.9511C93.9935 15.0656 95.0497 17.907 95.3467 20.7484C95.8087 25.1427 95.0167 29.6691 92.9374 33.5678C91.6833 35.9136 90.0331 38.1934 87.7228 39.548C84.5215 41.4643 80.297 41.2991 77.1617 39.3828C75.0164 38.0942 73.5973 35.8806 72.7722 33.5678C70.5279 26.4973 72.4091 18.1713 77.5907 12.8189C79.0759 11.3982 81.0891 10.3409 83.2673 10.0436ZM83.9274 17.0149C82.2442 17.6097 81.2211 19.2286 80.363 20.6823C78.4818 24.0193 77.9868 28.3145 79.7029 31.8497C80.165 32.8079 80.9901 33.7991 82.1452 33.8652C83.3994 33.8982 84.4885 33.1052 85.3796 32.2793C87.2938 30.396 88.1519 27.7198 88.4489 25.1097C88.779 22.6647 88.3499 20.0546 86.9307 18.0061C86.3037 17.048 85.0165 16.6185 83.9274 17.0149Z" fill="white"/>
<path fill-rule="evenodd" clip-rule="evenodd" d="M117.591 11.0024C120.33 10.4077 123.201 10.4737 125.941 11.1015C125.941 13.3482 125.941 15.5618 125.941 17.8085C123.696 17.2799 121.221 16.7513 119.043 17.8085C116.469 19.064 115.049 22.0046 115.016 24.8129C114.884 27.6213 115.809 30.727 118.284 32.3129C120.561 33.8328 123.465 33.5024 125.974 32.7755C125.974 34.9892 125.974 37.2359 125.974 39.4495C122.673 40.4077 119.076 40.2755 115.842 39.0861C111.98 37.6323 108.878 34.2953 107.723 30.3306C106.832 27.324 106.7 24.053 107.426 21.0134C108.548 16.0905 112.673 12.0927 117.591 11.0024ZM137.69 10.672C141.056 10.3085 144.72 10.8041 147.426 12.9848C150.066 15.0332 151.353 18.3041 151.816 21.509C152.278 25.0112 152.179 28.6786 151.089 32.0817C150.165 34.9561 148.218 37.6323 145.446 38.9539C142.608 40.2755 139.307 40.3746 136.304 39.7138C133.499 39.0861 131.056 37.2359 129.67 34.7248C127.756 31.3548 127.393 27.357 127.558 23.5574C127.723 20.2865 128.548 16.8504 130.759 14.3063C132.475 12.2248 135.017 10.9693 137.69 10.672ZM138.713 17.0486C137.261 17.4121 136.436 18.8328 136.073 20.1874C135.347 22.8306 135.479 25.6389 135.644 28.3812C135.809 29.835 135.974 31.487 137.03 32.6103C138.416 34.1962 141.221 33.9649 142.476 32.346C143.334 31.3218 143.532 29.9341 143.73 28.6455C143.994 26.3658 144.06 24.02 143.73 21.7403C143.499 20.3856 143.103 18.9319 142.112 17.9077C141.254 17.0156 139.901 16.7513 138.713 17.0486ZM270.761 11.1015C273.632 10.3416 276.635 10.4737 279.507 11.0685C279.573 13.3151 279.507 15.5288 279.54 17.7755C277.362 17.2469 274.952 16.7513 272.807 17.7094C270.332 18.8328 268.847 21.4759 268.649 24.1191C268.352 27.0927 269.144 30.4958 271.751 32.2138C274.028 33.7997 276.998 33.4693 279.507 32.7425C279.474 34.9892 279.573 37.2359 279.441 39.4825C275.909 40.4077 272.081 40.2755 268.748 38.8218C265.051 37.2028 262.213 33.8988 261.157 30.0002C260.332 27.0266 260.266 23.8218 260.992 20.8151C262.213 16.1566 266.107 12.324 270.761 11.1015ZM156.271 11.3328C159.439 11.3328 162.641 11.3328 165.809 11.3328C166.964 16.487 168.053 21.6742 169.01 26.8944C169.935 21.6742 171.156 16.487 172.377 11.3328C175.644 11.3328 178.912 11.3328 182.179 11.3328C183.433 20.683 184.72 30.0332 185.974 39.3834C183.466 39.3834 180.991 39.3834 178.483 39.3834C177.789 32.9737 177.162 26.564 176.436 20.1544C174.918 26.564 173.334 32.9737 171.783 39.3834C170.067 39.3834 168.383 39.3834 166.667 39.3834C165.05 32.9737 163.433 26.531 161.783 20.1213C161.156 26.531 160.496 32.9737 159.868 39.3834C157.492 39.3834 155.083 39.3834 152.707 39.3834C153.862 30.0332 155.083 20.683 156.271 11.3328ZM190.529 11.3328C193.697 11.3328 196.899 11.3328 200.1 11.3328C201.255 16.487 202.344 21.6742 203.301 26.8614C204.225 21.6411 205.447 16.487 206.668 11.3328C209.935 11.3328 213.169 11.3328 216.437 11.3328C217.691 20.683 218.978 30.0332 220.232 39.3834C217.724 39.3834 215.249 39.3834 212.74 39.3834C212.047 32.9737 211.387 26.564 210.727 20.1544C209.176 26.564 207.658 32.9737 206.074 39.3834C204.357 39.3834 202.674 39.3834 200.958 39.3834C199.341 32.9737 197.691 26.531 196.073 20.1213C195.413 26.531 194.786 32.9737 194.126 39.3834C191.75 39.3834 189.341 39.3834 186.964 39.3834C188.12 30.0332 189.341 20.683 190.529 11.3328ZM222.311 11.3988C227.427 11.2997 232.543 11.3988 237.658 11.3658C237.658 13.3482 237.658 15.3306 237.658 17.346C235.084 17.379 232.51 17.346 229.902 17.346C229.902 19.064 229.902 20.7821 229.902 22.4671C232.146 22.4671 234.358 22.4671 236.602 22.4671C236.602 24.4165 236.602 26.3328 236.602 28.2821C234.358 28.2821 232.146 28.2821 229.902 28.2821C229.902 30.0002 229.902 31.7182 229.902 33.4033C232.477 33.4033 235.084 33.4033 237.691 33.4033C237.691 35.3856 237.691 37.401 237.691 39.3834C232.576 39.3834 227.46 39.3834 222.344 39.3834C222.344 30.0993 222.41 20.7491 222.311 11.3988ZM239.869 11.3328C243.071 11.3328 246.272 11.2997 249.473 11.3658C252.477 11.4649 255.678 12.2248 257.955 14.3394C260.002 16.2226 260.695 19.3284 259.903 21.9385C259.276 24.0861 257.658 25.8041 255.678 26.7623C257.691 30.9583 259.705 35.1874 261.718 39.3834C259.044 39.3834 256.404 39.3834 253.731 39.3834C251.652 35.0883 249.605 30.7601 247.493 26.4649C247.427 30.7601 247.493 35.0552 247.46 39.3834C244.919 39.3834 242.411 39.3834 239.869 39.3834C239.869 30.0332 239.869 20.683 239.869 11.3328ZM247.427 16.7182C247.427 18.9319 247.427 21.1786 247.427 23.4253C248.78 23.3262 250.299 23.2601 251.454 22.4341C252.807 21.4759 252.642 19.3944 251.817 18.1389C250.728 16.8504 248.912 16.8504 247.427 16.7182ZM281.652 11.3328C286.768 11.3328 291.85 11.3328 296.966 11.3328C296.966 13.3151 296.966 15.3306 296.966 17.3129C294.391 17.3129 291.784 17.3129 289.21 17.3129C289.21 19.031 289.21 20.716 289.21 22.4341C291.454 22.4341 293.665 22.4341 295.91 22.4341C295.91 24.3834 295.91 26.3328 295.91 28.2491C293.665 28.2491 291.454 28.2491 289.21 28.2491C289.21 29.9671 289.21 31.6852 289.21 33.3702C291.817 33.3702 294.424 33.3702 297.032 33.3702C297.032 35.3526 297.032 37.368 297.032 39.3504C291.916 39.3504 286.801 39.3504 281.685 39.3504C281.652 30.0332 281.652 20.683 281.652 11.3328Z" fill="black"/>
</g>
<defs>
<clipPath id="clip0">
<rect width="297" height="60" fill="white"/>
</clipPath>
</defs>
</svg>
